<svg width="26" height="27" viewBox="0 0 26 27" fill="none" xmlns="http://www.w3.org/2000/svg">
<path fill-rule="evenodd" clip-rule="evenodd" d="M3.36 1C3.36 0.447715 3.80772 0 4.36 0H5.72C6.27229 0 6.72 0.447715 6.72 1V3.5C6.72 3.53375 6.71833 3.56711 6.71507 3.6H18.4849C18.4817 3.56711 18.48 3.53375 18.48 3.5V1C18.48 0.447715 18.9277 0 19.48 0H20.84C21.3923 0 21.84 0.447715 21.84 1V3.5C21.84 3.53375 21.8383 3.56711 21.8351 3.6H23.2C24.3046 3.6 25.2 4.49543 25.2 5.6V8.09999H0V5.6C0 4.49543 0.895431 3.6 2 3.6H3.36494C3.36168 3.56711 3.36 3.53375 3.36 3.5V1ZM25.2 9.89999H0V25C0 26.1046 0.895429 27 2 27H23.2C24.3046 27 25.2 26.1046 25.2 25V9.89999ZM4.36 12.6C3.80772 12.6 3.36 13.0477 3.36 13.6V15.2C3.36 15.7523 3.80772 16.2 4.36 16.2H5.72C6.27229 16.2 6.72 15.7523 6.72 15.2V13.6C6.72 13.0477 6.27229 12.6 5.72 12.6H4.36ZM10.92 13.6C10.92 13.0477 11.3677 12.6 11.92 12.6H13.28C13.8323 12.6 14.28 13.0477 14.28 13.6V15.2C14.28 15.7523 13.8323 16.2 13.28 16.2H11.92C11.3677 16.2 10.92 15.7523 10.92 15.2V13.6ZM19.48 12.6C18.9277 12.6 18.48 13.0477 18.48 13.6V15.2C18.48 15.7523 18.9277 16.2 19.48 16.2H20.84C21.3923 16.2 21.84 15.7523 21.84 15.2V13.6C21.84 13.0477 21.3923 12.6 20.84 12.6H19.48ZM3.35999 20.8C3.35999 20.2477 3.80771 19.8 4.35999 19.8H5.71999C6.27228 19.8 6.71999 20.2477 6.71999 20.8V22.4C6.71999 22.9523 6.27228 23.4 5.71999 23.4H4.35999C3.80771 23.4 3.35999 22.9523 3.35999 22.4V20.8ZM11.92 19.8C11.3677 19.8 10.92 20.2477 10.92 20.8V22.4C10.92 22.9523 11.3677 23.4 11.92 23.4H13.28C13.8323 23.4 14.28 22.9523 14.28 22.4V20.8C14.28 20.2477 13.8323 19.8 13.28 19.8H11.92ZM18.48 20.8C18.48 20.2477 18.9277 19.8 19.48 19.8H20.84C21.3923 19.8 21.84 20.2477 21.84 20.8V22.4C21.84 22.9523 21.3923 23.4 20.84 23.4H19.48C18.9277 23.4 18.48 22.9523 18.48 22.4V20.8Z" fill="white"/>
</svg>
